# xmcd CD database file
#
# Track frame offsets:
#	150
#	18202
#	39407
#	56113
#	68839
#	93706
#	107786
#	122128
#	152204
#	166470
#	186687
#	202709
#	220608
#	242326
#
# Disc length: 3658 seconds
#
# Revision: 0
# Processed by: cddbd v1.5.1PL0 Copyright (c) Steve Scherf et al.
# Submitted via: CDex 1.51
#
DISCID=c00e480e
DTITLE=Mr Bo and the Voodooers - The darkest side of blue
DYEAR=2005
DGENRE=Blues
TTITLE0=Got to be some changes made
TTITLE1=I can't stand up for falling down
TTITLE2=I have to shout it
TTITLE3=Aint no big deal on you
TTITLE4=Take a look behind
TTITLE5=Dark is the night
TTITLE6=Henpecked man
TTITLE7=The darkest shade of blue
TTITLE8=If it is too late
TTITLE9=Somebody loan me a dime
TTITLE10=I've made nights by myself
TTITLE11=DC-9
TTITLE12=Nine pound steel
TTITLE13=Ode to Billie Joe
EXTD=YEAR: 2005
EXTT0=
EXTT1=
EXTT2=
EXTT3=
EXTT4=
EXTT5=
EXTT6=
EXTT7=
EXTT8=
EXTT9=
EXTT10=
EXTT11=
EXTT12=
EXTT13=
PLAYORDER=
